<svg version="1" xmlns="http://www.w3.org/2000/svg" width="62" height="44" viewBox="0 0 62 44"><path fill="none" stroke="#868F97" stroke-width="2" stroke-miterlimit="10" d="M36.51 5.02v16.13c0 1.48-1.28 2.68-2.87 2.68H20.88l-5.067 4.545 1.067-4.545H5.21c-1.59 0-2.88-1.2-2.88-2.68V5.02c0-1.48 1.29-2.69 2.88-2.69h28.43c1.59 0 2.87 1.21 2.87 2.69z"/><path fill="#868F97" d="M25.567 17.063v16.722c0 1.533 1.326 2.777 2.976 2.777h13.23L48.562 43l-1.688-6.438h11.14c1.648 0 2.985-1.244 2.985-2.777V17.063c0-1.534-1.337-2.79-2.984-2.79H28.543c-1.65 0-2.976 1.256-2.976 2.79z"/></svg>