<svg xmlns="http://www.w3.org/2000/svg" width="35.5" height="43.333" viewBox="0 0 35.5 43.333"><path fill-rule="evenodd" clip-rule="evenodd" fill="#BBBEC3" d="M30.49 4.253c-2.244-1.746-4.14 3.942-6.365 9.306-1.25 3.013 5.785-1.252-1.7 11.398-7.514 12.696-8.156 5.744-10.145 8.494-3.813 5.273-6.686 7.878-4.113 8.813 6.637 2.413 14.783-3.42 20.515-15.084 5.732-11.662 7.24-18.703 1.81-22.927z"/><path fill-rule="evenodd" clip-rule="evenodd" fill="#868F97" d="M24.48 10.217c-.618 1.268-1.046 3.233-2.314 2.616l-2.104-.896c-1.73-.648-2.146-1.814-1.176-3.956l3.124-6.42c.618-1.27 2.146-.797 3.415-.18 1.27.618 3.18 1.415 3.18 1.415l-4.126 7.422z"/><path fill-rule="evenodd" clip-rule="evenodd" fill="#F9F9F9" d="M28.5 2.5l-6.334 10.333 1.962 1.79L30.334 4"/><path fill-rule="evenodd" clip-rule="evenodd" fill="#868F97" d="M10.333 33.813c.81-1.155 2.32-2.482 1.165-3.292l-1.804-1.403c-1.407-1.2-2.628-.997-4.03.89l-4.1 5.848c-.81 1.155.345 2.264 1.5 3.073 1.156.81 2.78 2.093 2.78 2.093l4.49-7.207z"/><path fill-rule="evenodd" clip-rule="evenodd" fill="#F9F9F9" d="M11.902 31.12l-6.25 9.92 2.253 1.113 5.872-9.38"/></svg>