<svg xmlns="http://www.w3.org/2000/svg" width="45.75" height="44" viewBox="0 0 45.75 44"><path fill="#BBBEC3" d="M43.125 36.358c0 3.118-2.55 5.67-5.67 5.67H7.546c-3.12 0-5.67-2.552-5.67-5.67V6.448c0-3.12 2.55-5.67 5.67-5.67h29.91c3.12 0 5.67 2.55 5.67 5.67v29.91z"/><path fill="#828898" d="M18.967 32.584c-1.02-.005-2.123-.01-3.336-.74-1.155-.696-1.937-1.943-2.2-3.512l-.04-.458V13.167c0-1.654 1.345-3 3-3s3 1.346 3 3v3.05l8.483-.05c1.657 0 3.003 1.346 3.003 3s-1.346 3-3 3l-8.487.02v4.397h9.11c1.654 0 3 1.346 3 3s-1.346 3-3 3h-9.533z"/><path fill="#FFF" d="M16.388 10.667c1.38 0 2.5 1.12 2.5 2.5v3.552l8.987-.053c1.38 0 2.5 1.12 2.5 2.5s-1.12 2.5-2.5 2.5l-8.987.02v5.397H28.5c1.38 0 2.5 1.12 2.5 2.5s-1.12 2.5-2.5 2.5h-9.533c-.966-.005-1.967 0-3.08-.67-1.602-.964-1.907-2.825-1.965-3.17l-.034-.41V13.166c0-1.38 1.12-2.5 2.5-2.5m0-1c-1.93 0-3.5 1.57-3.5 3.5v14.706l.003.043.035.412.003.04.007.042c.288 1.72 1.153 3.09 2.437 3.86 1.332.803 2.56.81 3.547.814h9.58c1.93 0 3.5-1.57 3.5-3.5s-1.57-3.5-3.5-3.5h-8.613v-3.4l7.99-.017c1.927 0 3.497-1.57 3.497-3.5s-1.57-3.5-3.5-3.5l-7.987.046v-2.546c0-1.93-1.57-3.5-3.5-3.5z"/></svg>